<?xml version="1.0" standalone="no"?>
<!DOCTYPE svg PUBLIC "-//W3C//DTD SVG 20010904//EN"
 "http://www.w3.org/TR/2001/REC-SVG-20010904/DTD/svg10.dtd">
<svg version="1.0" xmlns="http://www.w3.org/2000/svg"
 width="300.000000pt" height="227.000000pt" viewBox="0 0 300.000000 227.000000"
 preserveAspectRatio="xMidYMid meet">
<metadata>
Created by potrace 1.10, written by Peter Selinger 2001-2011
</metadata>
<g transform="translate(0.000000,227.000000) scale(0.100000,-0.100000)"
fill="#000000" stroke="none">
<path d="M1589 2077 c-9 -20 -17 -22 -87 -24 -85 -1 -157 -10 -192 -23 -3 -1
-8 -2 -12 -1 -34 5 -255 -96 -348 -159 -118 -80 -252 -225 -305 -331 -22 -43
-29 -48 -62 -51 -43 -3 -54 -25 -27 -52 15 -16 15 -20 -5 -66 -12 -27 -21 -57
-21 -68 0 -10 -16 -33 -36 -50 -37 -33 -38 -52 -3 -52 18 0 20 -4 13 -32 -4
-18 -7 -159 -7 -313 0 -239 -2 -289 -18 -343 -20 -72 -19 -65 -19 -97 l0 -24
-36 24 c-43 29 -142 67 -155 60 -5 -4 -9 -15 -9 -25 0 -31 38 -122 64 -155
l24 -30 -51 -20 c-59 -24 -77 -46 -57 -70 17 -20 79 -53 114 -59 14 -2 30 -8
36 -11 11 -7 40 11 40 24 0 3 -17 7 -39 7 -39 1 -131 40 -131 56 0 5 11 13 25
18 14 6 37 15 53 22 15 6 35 10 45 9 25 -3 21 7 -13 35 -30 26 -63 87 -75 143
l-7 32 44 -18 c53 -21 85 -40 119 -70 l26 -24 6 63 c3 35 13 83 23 108 13 36
17 95 20 310 5 272 10 369 22 371 47 9 62 3 43 -16 -5 -6 -12 -38 -15 -72 -4
-50 -2 -63 9 -63 15 0 22 21 27 75 2 17 8 29 15 28 6 -2 15 6 18 17 4 11 18
34 32 50 31 38 26 45 -18 26 -29 -12 -100 -20 -146 -17 -17 1 64 74 107 97 19
10 53 20 75 23 l40 6 -85 54 c-85 54 -85 54 -55 63 17 4 48 5 70 2 35 -6 38
-5 27 9 -8 9 -20 13 -28 10 -23 -9 -16 11 29 78 58 87 198 227 280 279 37 23
67 47 67 51 0 5 3 8 8 7 14 -4 52 13 52 23 0 6 5 7 10 4 6 -3 10 -1 10 4 0 6
3 10 8 9 14 -3 92 25 92 34 0 5 5 6 10 3 6 -3 10 -1 10 5 0 7 6 10 13 7 6 -2
23 0 37 5 66 26 276 41 274 20 -1 -7 -2 -19 -2 -27 -1 -10 -13 -15 -33 -15
-37 0 -35 -24 2 -28 18 -2 30 6 47 31 12 18 22 42 22 53 0 10 5 26 10 34 17
24 34 -9 47 -93 3 -21 10 -40 14 -43 5 -3 9 -16 9 -30 l0 -25 39 31 c21 17 48
32 60 33 11 1 21 5 21 10 0 4 5 5 10 2 6 -3 10 -1 10 4 0 26 121 2 150 -29 14
-16 98 -58 104 -53 3 3 6 2 6 -4 0 -6 31 -33 69 -62 83 -61 156 -140 220 -236
25 -38 51 -73 56 -77 6 -4 -2 -8 -17 -8 -31 0 -55 20 -81 71 -10 19 -37 55
-60 82 -36 40 -48 47 -79 47 -20 0 -40 -5 -43 -10 -4 -6 -10 -8 -14 -6 -4 3
-42 8 -83 12 -65 5 -76 4 -82 -11 -6 -15 2 -17 76 -15 106 3 209 -1 183 -7
-11 -3 -24 -10 -30 -15 -7 -7 -2 -9 14 -5 24 6 60 -24 61 -50 0 -7 5 -13 11
-13 13 0 33 -21 36 -38 2 -6 -3 -12 -11 -12 -9 0 -13 -11 -12 -32 0 -22 -3
-32 -11 -31 -14 3 -18 -29 -6 -40 4 -4 19 4 34 19 29 27 80 43 142 44 55 0 45
-16 -47 -77 -75 -51 -76 -53 -44 -53 48 0 129 -42 160 -82 15 -20 25 -38 22
-41 -9 -9 -96 4 -133 19 -43 18 -52 10 -22 -18 69 -63 65 -181 -8 -240 l-26
-21 25 6 c36 9 70 -2 63 -19 -4 -10 -26 -14 -89 -14 -46 0 -84 4 -84 8 0 15
24 32 44 32 17 0 18 2 6 10 -12 8 -12 10 3 16 9 3 23 4 31 1 23 -9 26 18 10
68 -20 58 -34 66 -34 18 0 -39 -31 -103 -50 -103 -7 0 -7 6 0 20 6 11 15 20
20 20 6 0 9 12 9 28 -2 23 -2 24 -6 5 -2 -13 -10 -23 -18 -23 -7 0 -16 -8 -20
-17 -12 -27 -7 -257 5 -261 6 -2 10 -47 9 -115 -1 -63 -4 -101 -8 -87 -6 20
-9 13 -14 -34 -4 -32 -5 -61 -2 -64 2 -3 23 -13 44 -23 l40 -17 46 35 c28 23
44 42 40 50 -3 8 -5 20 -5 26 0 6 -8 0 -17 -13 -20 -29 -54 -56 -66 -52 -5 1
-6 -2 -2 -8 3 -5 -1 -10 -9 -10 -9 0 -16 5 -16 10 0 6 -7 10 -15 10 -21 0 -19
16 10 57 21 31 22 38 10 47 -13 9 -10 19 21 61 28 39 32 51 20 53 -23 5 -20
18 14 74 35 57 35 58 12 58 -9 0 -22 -10 -27 -22 -7 -17 -20 -24 -47 -26 -37
-3 -38 -3 -38 32 l0 36 74 0 74 0 7 31 c4 18 21 55 37 83 28 47 30 56 24 116
-8 90 -14 107 -39 115 -20 7 -20 8 8 14 56 13 62 6 69 -76 4 -41 6 -178 5
-304 0 -127 2 -233 5 -236 10 -10 7 -35 -4 -28 -5 3 -2 -11 7 -32 9 -21 19
-66 22 -101 l6 -63 40 29 c22 16 61 39 88 50 41 18 47 19 47 5 0 -41 -28 -101
-67 -142 -24 -24 -42 -45 -40 -46 1 0 25 -7 52 -13 56 -15 98 -39 90 -52 -9
-14 -97 -40 -138 -40 -40 0 -40 0 -22 -20 10 -11 21 -16 24 -11 4 5 20 9 36 9
36 -1 114 32 135 56 12 16 11 20 -10 37 -14 11 -44 25 -67 31 -45 13 -53 27
-27 49 40 33 79 168 54 184 -13 8 -131 -43 -157 -68 l-23 -20 0 40 c0 22 -5
54 -11 70 -6 19 -11 155 -12 344 -1 173 -6 321 -10 330 -6 12 -3 18 12 22 30
7 26 37 -9 74 -17 18 -30 41 -30 52 0 11 -8 36 -17 55 -16 35 -16 36 12 62 24
22 26 28 14 39 -8 8 -29 15 -47 17 -28 2 -37 10 -71 68 -21 36 -50 76 -62 90
-13 14 -39 45 -57 68 -77 97 -328 262 -399 262 -13 0 -43 11 -67 25 -23 14
-67 27 -100 31 -52 6 -59 10 -68 35 -13 37 -53 40 -69 6z m221 -89 l25 -10
-25 -10 c-14 -6 -33 -12 -42 -13 -10 -1 -26 -9 -36 -18 -24 -22 -44 -22 -40 1
2 10 11 16 21 14 9 -2 17 2 17 8 0 5 -9 10 -20 10 -11 0 -20 2 -20 4 0 2 -3
12 -7 21 -5 16 0 17 48 10 30 -4 65 -12 79 -17z m-1152 -611 c12 -12 11 -15
-3 -20 -10 -5 -19 1 -25 16 l-9 22 0 -22 c-1 -21 -50 -77 -59 -68 -3 3 3 25
12 50 16 40 21 45 44 40 14 -2 32 -11 40 -18z m1822 -17 c7 -17 10 -33 8 -36
-7 -7 -38 7 -38 17 0 5 -7 9 -15 9 -18 0 -19 12 -3 28 20 20 35 14 48 -18z m0
-314 c0 -19 -7 -25 -32 -28 -24 -4 -28 -3 -16 6 8 6 18 21 22 34 9 27 26 19
26 -12z m-20 -61 c0 -16 -9 -19 -34 -9 -20 8 -11 24 15 24 10 0 19 -7 19 -15z
m-46 -84 c4 -5 3 -16 0 -25 -5 -13 -21 -16 -75 -16 -67 0 -69 1 -69 25 0 24 2
25 69 25 39 0 72 -4 75 -9z"/>
<path d="M1617 1937 c2 -37 -1 -56 -7 -52 -13 8 -13 -26 1 -62 l11 -28 14 40
c17 48 17 48 4 40 -14 -9 -12 8 3 24 9 10 9 15 1 18 -7 2 -10 14 -7 26 4 17 2
19 -5 8 -8 -12 -11 -8 -15 15 -2 16 -2 3 0 -29z"/>
<path d="M1368 1964 c-4 -3 -17 -7 -30 -8 -28 -3 -128 -36 -128 -42 0 -2 28
-4 63 -4 55 1 60 2 44 14 -18 14 -18 14 0 18 22 4 154 -8 185 -17 21 -6 21 -6
8 9 -8 8 -25 17 -37 19 -12 2 -26 6 -29 10 -9 8 -68 9 -76 1z"/>
<path d="M1556 1918 c-11 -16 -13 -25 -4 -35 17 -21 24 -15 25 22 1 41 -1 42
-21 13z"/>
<path d="M1400 1916 c0 -10 95 -56 109 -53 9 2 -9 15 -42 30 -58 27 -67 30
-67 23z"/>
<path d="M1788 1907 c-33 -13 -37 -27 -7 -27 11 0 17 5 14 10 -3 6 2 10 12 10
10 0 25 5 33 10 12 8 11 10 -5 9 -11 -1 -32 -6 -47 -12z"/>
<path d="M1876 1901 c-14 -16 -13 -17 19 -18 19 -1 35 0 35 1 0 1 -9 9 -19 18
-18 15 -20 15 -35 -1z"/>
<path d="M1150 1890 c-10 -7 18 -10 88 -10 61 0 102 4 102 10 0 13 -170 13
-190 0z"/>
<path d="M1719 1883 c-1 -5 -1 -11 0 -16 1 -4 -10 -12 -23 -17 -23 -8 -56 -46
-56 -63 0 -4 14 0 30 10 17 9 30 21 30 25 0 4 7 8 15 8 9 0 12 6 9 15 -5 11 1
15 21 15 15 0 24 4 20 10 -4 6 -16 8 -27 4 -14 -4 -18 -2 -14 5 4 6 5 11 2 11
-3 0 -7 -3 -7 -7z"/>
<path d="M1418 1863 c7 -12 17 -23 24 -26 8 -3 3 -9 -12 -15 -14 -5 -26 -6
-28 -1 -2 5 -78 9 -169 9 -92 0 -164 2 -162 5 11 10 314 13 327 3 9 -8 12 -6
12 6 0 9 -3 16 -7 16 -5 0 -75 1 -158 2 -141 2 -153 0 -195 -23 l-45 -24 188
-3 c127 -2 187 -6 185 -13 -2 -7 -73 -10 -210 -9 -140 0 -209 -3 -213 -10 -5
-8 52 -10 200 -8 176 3 203 1 186 -10 -19 -13 -90 -15 -370 -8 -36 1 -56 -3
-59 -12 -3 -10 36 -12 197 -10 197 3 201 3 195 -17 -4 -14 4 -9 28 16 50 52
79 69 134 76 27 3 51 7 53 9 2 1 -12 10 -30 18 -19 9 -45 23 -58 33 -24 17
-24 17 -13 -4z"/>
<path d="M1830 1873 c-8 -3 -23 -12 -32 -20 -9 -8 -34 -21 -55 -29 -38 -13
-38 -13 -8 -14 32 -2 48 -4 86 -14 l24 -6 -22 11 c-30 16 -29 28 5 56 28 23
28 26 2 16z"/>
<path d="M1543 1863 c5 -7 -1 -13 -15 -16 l-23 -4 22 -2 c13 0 20 -6 18 -13
-5 -14 44 -42 54 -32 3 3 -4 14 -16 24 -12 9 -20 20 -17 22 2 3 -3 11 -13 19
-9 8 -14 9 -10 2z"/>
<path d="M1842 1854 c-15 -11 -15 -15 2 -45 19 -37 71 -83 60 -54 -4 10 0 15
11 15 9 0 19 -9 22 -20 5 -18 14 -20 114 -20 60 0 109 4 109 9 0 15 -21 18
-101 16 -42 -2 -83 1 -90 6 -9 5 19 9 71 9 62 0 81 3 73 11 -14 14 -205 12
-214 -2 -3 -6 -11 -4 -18 5 -16 19 5 25 109 28 l75 3 -47 28 c-39 22 -57 27
-104 25 -31 -1 -63 -8 -72 -14z m155 -18 c4 -3 -28 -6 -71 -6 -43 0 -75 4 -72
9 6 10 133 7 143 -3z"/>
<path d="M1510 1780 c-8 -5 -28 -10 -43 -10 -16 0 -41 -6 -55 -14 -15 -8 -35
-17 -44 -20 -10 -3 -18 -10 -18 -15 0 -13 29 -3 54 18 18 15 19 15 13 -4 -6
-17 -3 -16 15 5 14 16 19 19 15 8 -4 -10 -3 -18 0 -18 4 0 15 8 26 18 12 10
17 11 12 3 -6 -10 -4 -12 6 -5 16 9 20 10 67 12 20 1 31 6 27 12 -4 6 -15 8
-26 5 -11 -4 -19 -2 -19 4 0 13 -10 14 -30 1z"/>
<path d="M1690 1769 c-43 -6 -39 -8 23 -13 6 -1 17 -8 24 -16 11 -13 12 -13
13 0 0 28 -14 35 -60 29z"/>
<path d="M1797 1763 c-4 -6 2 -18 13 -28 15 -14 20 -15 20 -4 1 12 3 11 13 -1
7 -8 23 -16 36 -18 24 -2 24 -2 6 18 -10 12 -28 20 -39 18 -12 -2 -26 3 -32
11 -7 9 -13 10 -17 4z"/>
<path d="M1558 1720 c-28 -15 -35 -24 -31 -40 3 -11 10 -20 15 -20 5 0 6 10 3
23 -6 17 -5 19 5 10 10 -9 18 -6 36 12 40 40 30 45 -28 15z"/>
<path d="M1637 1733 c-9 -9 12 -33 29 -33 8 0 14 -8 15 -17 0 -15 2 -15 8 2
12 29 -32 69 -52 48z"/>
<path d="M264 1712 c-23 -15 -94 -123 -94 -142 0 -17 6 -20 45 -20 41 0 45 -2
45 -25 0 -16 6 -25 15 -25 9 0 15 9 15 25 0 16 6 25 15 25 8 0 15 7 15 15 0 8
-7 15 -15 15 -12 0 -15 14 -15 64 0 64 -6 81 -26 68z m-4 -97 c0 -32 -2 -35
-30 -35 l-29 0 22 35 c28 44 37 44 37 0z"/>
<path d="M353 1713 c-18 -3 -23 -11 -23 -34 0 -29 1 -30 22 -15 12 9 33 16 45
16 37 0 28 -34 -18 -72 -31 -26 -41 -42 -44 -71 l-3 -37 59 0 c52 0 59 2 59
20 0 17 -7 20 -40 20 -22 0 -40 2 -40 5 0 3 18 23 40 44 45 43 52 79 20 111
-20 20 -32 22 -77 13z"/>
<path d="M835 1664 c-54 -55 -95 -102 -95 -108 0 -2 9 -2 20 1 11 3 17 9 14
14 -3 5 4 9 15 9 14 0 21 6 21 19 0 22 17 29 74 30 57 1 58 11 0 11 -45 0 -47
1 -25 13 19 9 63 10 184 3 114 -6 162 -5 170 3 8 8 -3 11 -43 12 -30 0 -68 2
-85 3 -16 1 -70 3 -119 4 -49 1 -87 5 -83 8 3 3 91 5 196 5 149 -1 191 1 191
11 0 10 -43 13 -192 13 l-193 0 -50 -51z"/>
<path d="M1435 1704 c-16 -7 -48 -13 -70 -14 -60 -1 -82 -20 -23 -20 27 0 53
-6 61 -14 13 -13 18 -10 45 20 34 39 31 47 -13 28z"/>
<path d="M2042 1712 c-125 -4 -90 -22 44 -22 88 0 115 3 111 13 -4 13 -22 14
-155 9z"/>
<path d="M2563 1702 c-4 -9 -26 -41 -50 -70 -57 -71 -56 -80 9 -84 47 -3 53
-5 53 -25 0 -13 3 -23 8 -23 4 0 12 0 17 0 6 0 10 14 10 30 0 17 5 30 10 30 6
0 10 5 10 10 0 6 -6 10 -12 10 -9 0 -13 20 -13 66 0 57 -3 67 -18 70 -10 1
-21 -5 -24 -14z m12 -93 c0 -25 -4 -29 -27 -29 -34 0 -34 3 -6 40 25 34 33 31
33 -11z"/>
<path d="M2647 1713 c-11 -10 -8 -63 3 -63 6 0 10 3 10 8 0 12 54 34 58 22 2
-6 7 -8 10 -6 4 2 7 -7 7 -20 0 -13 -7 -26 -16 -29 -27 -9 -67 -59 -74 -92
l-7 -33 66 0 c59 0 66 2 66 20 0 17 -7 20 -45 20 -48 0 -60 15 -22 29 33 13
54 41 62 82 6 31 3 39 -16 53 -23 16 -90 22 -102 9z"/>
<path d="M2816 1697 c-35 -35 -44 -116 -19 -159 25 -43 78 -51 111 -16 23 25
26 39 24 106 -2 31 -9 50 -27 67 -30 31 -59 32 -89 2z m82 -81 c4 -56 -11 -78
-47 -74 -25 3 -26 6 -26 66 0 71 15 91 50 68 14 -10 21 -27 23 -60z"/>
<path d="M493 1702 c-37 -23 -44 -135 -12 -176 25 -31 57 -33 93 -5 23 18 26
27 26 83 0 52 -4 66 -23 84 -23 22 -62 28 -84 14z m65 -34 c13 -13 16 -85 6
-112 -8 -20 -47 -21 -63 -2 -11 13 -9 96 4 116 8 14 38 13 53 -2z"/>
<path d="M1790 1686 c22 -22 31 -25 59 -20 l33 7 -39 14 c-77 29 -81 28 -53
-1z"/>
<path d="M1700 1674 c0 -24 2 -25 17 -13 15 12 16 12 10 -3 -3 -10 -2 -20 2
-23 18 -10 20 38 3 51 -25 20 -32 17 -32 -12z"/>
<path d="M1601 1671 c-20 -37 -7 -85 14 -51 4 6 11 8 16 5 5 -4 12 1 16 10 3
10 0 20 -6 25 -7 4 -12 11 -11 16 3 18 -19 14 -29 -5z"/>
<path d="M1472 1643 c-27 -40 -45 -99 -36 -125 7 -22 7 -22 15 -3 4 11 8 38 9
60 1 32 3 36 10 20 8 -19 9 -19 9 3 1 13 5 20 11 17 6 -4 10 7 10 24 0 38 -3
38 -28 4z"/>
<path d="M1335 1650 c-16 -4 -106 -9 -200 -10 -95 -1 -155 -5 -135 -9 44 -9
315 -6 353 3 19 4 26 3 22 -4 -3 -5 0 -10 8 -10 10 0 13 7 10 20 -6 21 -11 22
-58 10z"/>
<path d="M1750 1643 c0 -10 3 -28 6 -41 5 -19 9 -20 22 -10 13 11 15 10 9 -5
-8 -21 2 -77 14 -77 13 0 11 46 -3 92 -13 43 -48 73 -48 41z"/>
<path d="M1846 1644 c-4 -9 3 -12 25 -9 16 2 44 -1 61 -6 22 -6 35 -5 43 3 7
8 6 9 -3 4 -7 -4 -18 -3 -25 2 -21 17 -95 21 -101 6z"/>
<path d="M1540 1621 c-15 -29 -12 -61 5 -61 11 0 15 11 15 40 0 45 -4 49 -20
21z"/>
<path d="M1680 1596 c0 -38 16 -57 26 -32 8 21 -3 66 -16 66 -6 0 -10 -15 -10
-34z"/>
<path d="M870 1586 c0 -7 6 -18 13 -24 15 -13 116 -27 182 -25 94 2 108 4 99
13 -5 5 -69 10 -142 11 -72 0 -132 5 -132 10 0 5 105 9 244 9 153 0 247 4 251
10 4 7 -83 10 -254 10 -215 0 -261 -2 -261 -14z"/>
<path d="M1619 1584 c0 -10 -3 -13 -6 -7 -3 10 -8 10 -19 -1 -16 -17 -19 -36
-4 -36 6 0 10 4 10 8 0 13 34 11 42 -2 5 -7 10 -7 16 -1 5 6 -1 20 -15 34 -21
22 -23 23 -24 5z"/>
<path d="M1840 1572 c0 -38 -17 -94 -32 -105 -9 -6 -8 -7 5 -3 9 3 78 9 151
12 128 7 135 6 162 -15 31 -25 29 -26 37 17 l7 32 -158 0 -158 0 4 35 c2 20 9
35 16 34 54 -7 316 3 316 11 0 7 -60 10 -175 10 l-175 -2 0 -26z"/>
<path d="M1480 1533 c-28 -75 -21 -102 10 -38 24 49 33 95 19 95 -4 0 -17 -25
-29 -57z"/>
<path d="M1730 1578 c0 -9 -3 -24 -7 -34 -5 -13 -3 -15 7 -9 15 10 8 -4 -27
-51 -12 -17 -22 -33 -20 -35 1 -2 -2 -1 -7 3 -5 4 -2 18 8 32 9 14 16 33 15
43 0 14 -3 12 -12 -7 -6 -14 -18 -31 -25 -39 -10 -11 -13 -136 -11 -646 l1
-634 62 -5 c33 -3 104 -8 156 -11 108 -6 161 -11 208 -19 22 -3 30 -2 26 5 -4
6 4 5 17 -3 28 -17 224 -52 239 -43 20 12 10 25 -20 25 -17 0 -48 6 -70 12
-37 12 -39 15 -43 58 l-3 45 -2 -47 c-1 -27 -6 -48 -11 -48 -5 0 -12 87 -15
192 -4 106 -9 239 -12 295 l-5 102 -45 -21 -44 -22 0 -263 c0 -256 -1 -263
-20 -263 -20 0 -20 7 -20 291 0 243 -2 293 -15 305 -13 13 -14 -20 -8 -284 5
-230 3 -301 -6 -306 -7 -5 -15 -5 -19 -2 -3 4 -7 122 -9 264 -2 141 -6 295 -9
342 l-5 85 27 -30 c26 -28 26 -28 19 -5 -7 22 -6 23 9 11 9 -8 19 -12 21 -9 4
4 -170 108 -181 108 -2 0 -3 -19 -2 -42 1 -37 2 -39 5 -10 4 28 7 31 23 22 18
-10 19 -28 20 -365 0 -236 -3 -355 -10 -355 -7 0 -11 119 -12 348 -1 191 -4
313 -8 272 l-6 -75 -5 60 c-3 33 -6 -90 -7 -273 l-2 -333 -22 3 -23 3 4 364
c2 301 1 363 -11 359 -10 -4 -13 -74 -16 -367 -2 -283 -5 -362 -15 -358 -9 3
-11 82 -8 355 4 313 2 352 -12 352 -13 0 -15 -27 -15 -217 1 -441 -1 -483 -17
-483 -13 0 -15 72 -15 584 0 576 0 585 -20 591 -11 3 -20 12 -20 18 1 13 55
77 66 77 3 0 4 -17 2 -38 l-3 -38 102 3 c57 2 103 -1 103 -6 0 -5 8 -11 18
-13 27 -7 23 18 -4 30 -25 12 -161 19 -171 9 -17 -18 -28 -4 -25 32 3 24 -4
54 -17 82 -11 24 -20 36 -21 27z m-40 -394 c10 -367 6 -957 -6 -961 -8 -3 -11
104 -11 364 -1 202 -5 466 -9 587 -6 186 -5 218 7 214 11 -4 15 -44 19 -204z
m17 -31 c-2 -21 -4 -6 -4 32 0 39 2 55 4 38 2 -18 2 -50 0 -70z m255 -273 c4
0 8 -153 8 -340 0 -267 -3 -338 -12 -335 -10 4 -13 79 -14 323 0 174 -4 335
-7 357 -6 34 -5 37 4 18 7 -13 16 -23 21 -23z m190 -232 c1 -29 2 -88 2 -131
1 -63 5 -81 19 -91 19 -14 24 -71 7 -81 -6 -4 -10 -25 -8 -48 5 -88 -1 -117
-21 -117 -18 0 -19 5 -14 73 6 76 18 111 34 102 5 -4 9 3 9 15 0 12 -4 19 -9
16 -4 -3 -18 3 -31 14 -12 10 -27 21 -33 23 -9 3 -9 8 0 19 8 9 13 54 14 123
0 60 3 115 6 122 11 29 23 10 25 -39z"/>
<path d="M1673 1275 c0 -44 2 -61 4 -37 2 23 2 59 0 80 -2 20 -4 1 -4 -43z"/>
<path d="M2199 1559 c-9 -17 -13 -19 -20 -8 -5 8 -6 -2 -2 -26 3 -22 7 -41 7
-42 1 -1 9 20 17 47 17 54 16 62 -2 29z"/>
<path d="M1230 1551 c-21 -7 -17 -8 23 -12 64 -6 138 1 131 12 -6 11 -118 10
-154 0z"/>
<path d="M1884 1551 c3 -5 20 -13 37 -16 36 -8 141 3 135 14 -3 4 -44 8 -91
10 -56 1 -85 -1 -81 -8z"/>
<path d="M720 1521 c-16 -31 -12 -47 15 -59 39 -18 43 -16 47 33 3 43 2 45
-24 45 -17 0 -31 -7 -38 -19z"/>
<path d="M1605 1531 c-3 -6 -1 -11 6 -11 6 0 9 -8 6 -20 -6 -23 18 -28 26 -6
7 18 -28 52 -38 37z"/>
<path d="M909 1510 c-1 -3 -2 -21 -3 -40 -1 -19 -6 -44 -10 -55 -6 -16 -3 -15
17 6 46 51 69 59 166 63 50 2 94 6 97 9 4 3 17 2 31 -4 16 -6 22 -6 18 1 -3 6
-1 10 4 10 6 0 11 -4 11 -10 0 -6 30 -10 70 -10 39 0 70 -3 70 -7 -1 -30 -22
-35 -141 -39 -68 -2 -131 -5 -139 -6 -23 -2 -70 -38 -70 -53 0 -7 -7 -16 -16
-19 -12 -4 -15 -2 -11 9 5 12 0 11 -30 -3 l-35 -17 43 -7 c24 -5 49 -6 56 -4
6 3 14 0 16 -7 2 -7 15 -12 28 -13 13 0 60 -1 104 -2 l81 -2 2 -57 c3 -82 -3
-93 -46 -95 l-37 -1 35 -4 c45 -6 55 -16 41 -42 -7 -12 -8 -21 -4 -21 5 0 10
-12 11 -27 1 -14 4 -29 7 -31 3 -3 5 67 5 156 l0 162 -26 -10 c-14 -6 -39 -10
-56 -10 -50 0 -158 21 -158 31 0 5 7 9 16 9 10 0 14 5 10 16 -3 8 -2 12 4 9 6
-3 10 -2 10 2 0 5 49 10 108 12 91 2 109 0 109 -12 0 -8 -6 -13 -13 -10 -6 2
-15 0 -19 -6 -3 -7 2 -11 14 -11 11 0 24 6 28 14 4 7 19 19 33 26 14 7 35 22
47 33 l23 20 24 -26 c15 -16 21 -29 14 -33 -6 -4 -13 -1 -17 5 -6 9 -15 6 -32
-8 -13 -11 -19 -20 -13 -21 5 0 15 5 22 12 6 6 14 9 18 6 3 -3 -20 -21 -50
-39 -35 -21 -56 -40 -56 -52 0 -15 10 -11 58 22 31 22 67 48 79 58 l21 18 -34
50 c-19 28 -38 49 -42 49 -4 -1 -11 0 -17 2 -16 6 -475 10 -476 4z"/>
<path d="M1515 1500 c10 -33 34 -68 54 -80 12 -7 14 -13 5 -27 -8 -12 -12
-194 -13 -588 -1 -338 -6 -574 -12 -580 -5 -5 -10 151 -11 415 -1 234 -4 396
-8 360 -5 -52 -7 -37 -8 74 -1 77 -4 137 -7 135 -8 -9 -13 -245 -14 -619 l-1
-365 -120 -3 -120 -4 0 362 c0 285 -3 361 -12 358 -10 -4 -14 -90 -18 -369 -3
-236 -9 -363 -15 -361 -5 2 -31 1 -58 -2 -28 -4 -55 -2 -68 5 -12 6 -19 7 -15
1 3 -5 -1 -13 -10 -16 -28 -11 -37 -7 -23 11 13 14 10 14 -20 -1 -33 -18 -35
-17 -82 5 -53 24 -65 49 -23 49 14 0 23 4 19 10 -3 6 -1 10 4 10 6 0 11 -4 11
-10 0 -5 7 -10 15 -10 8 0 15 5 15 10 0 6 -7 10 -15 10 -17 0 -45 60 -45 96 0
31 23 31 58 -1 35 -32 52 -32 52 2 0 33 21 93 33 93 12 0 40 -71 39 -97 -2
-26 14 -29 42 -8 11 8 28 15 37 15 15 0 16 -5 7 -37 -5 -21 -14 -42 -19 -48
-15 -15 -10 -34 12 -45 27 -15 38 -4 13 14 -16 12 -17 16 -4 20 13 5 15 48 13
313 -2 169 -3 309 -3 312 0 3 -5 0 -12 -7 -8 -8 -10 -81 -9 -255 2 -214 0
-245 -13 -250 -14 -6 -16 6 -16 84 0 68 -3 90 -12 86 -10 -3 -12 -31 -11 -103
l2 -99 -17 54 c-19 59 -56 96 -85 85 -22 -8 -12 -25 11 -18 16 5 16 5 0 -9
-10 -7 -19 -31 -20 -53 -2 -26 -8 -39 -18 -39 -12 0 -15 25 -18 146 l-3 147
48 29 c27 15 60 35 76 42 25 14 27 18 27 83 0 37 -2 68 -5 68 -6 0 -21 -13
-113 -97 -41 -37 -85 -74 -98 -83 l-25 -15 -1 -217 c-1 -176 -4 -218 -15 -222
-8 -3 -13 -14 -12 -23 3 -39 -1 -83 -10 -83 -4 0 -9 23 -10 52 -1 70 -11 75
-11 5 0 -45 -3 -57 -16 -57 -8 0 -12 5 -9 10 8 13 4 13 -38 -5 -20 -8 -50 -15
-67 -15 -33 0 -38 -11 -15 -30 8 -7 23 -9 37 -4 13 4 29 9 36 10 80 14 169 27
281 39 73 9 137 17 140 20 10 5 303 19 369 17 l52 -1 -2 97 c-1 90 -2 93 -8
37 -6 -57 -7 -55 -7 30 -1 58 2 81 7 65 5 -15 8 26 9 108 1 82 -3 132 -9 132
-14 0 -12 27 3 33 10 4 10 6 0 6 -9 1 -13 19 -12 59 0 41 3 51 9 37 8 -18 9
-17 9 7 1 15 -3 30 -9 33 -6 4 -9 54 -8 123 l2 117 6 -120 c4 -85 7 -29 8 188
2 256 0 311 -12 323 -21 20 -28 17 -21 -8 8 -25 2 -21 -35 27 -21 28 -22 28
-15 5z m12 -1117 c-1 -87 -3 -16 -3 157 0 173 2 244 3 158 2 -87 2 -229 0
-315z m-437 420 c-1 -20 -32 -46 -70 -58 -23 -7 -24 -7 -10 11 49 64 80 83 80
47z m-100 -81 c0 -4 -9 -15 -20 -25 -11 -9 -21 -27 -21 -39 -1 -13 -2 -61 -4
-108 -4 -178 -35 -171 -35 8 l1 127 32 22 c35 23 47 27 47 15z m-62 -543 c-24
-16 -38 -9 -38 16 0 25 0 25 26 9 19 -13 22 -19 12 -25z"/>
<path d="M2230 1491 c0 -12 -4 -20 -8 -17 -5 3 -9 -1 -9 -9 0 -8 4 -12 9 -9 4
3 8 0 8 -5 0 -6 -5 -11 -11 -11 -8 0 -7 -6 2 -17 12 -15 12 -16 -3 -11 -20 8
-19 -24 2 -62 l14 -25 9 35 c10 41 10 51 2 105 -7 45 -15 59 -15 26z"/>
<path d="M776 1445 c-10 -7 -15 -18 -11 -24 12 -20 30 -11 31 14 1 14 1 25 0
25 0 0 -9 -7 -20 -15z"/>
<path d="M370 1434 c-7 -8 -9 -14 -5 -14 4 0 2 -6 -4 -13 -14 -17 -4 -27 25
-27 25 0 40 15 25 25 -6 3 -8 12 -5 19 7 19 -22 28 -36 10z"/>
<path d="M826 1438 c3 -4 13 -8 22 -8 14 0 15 -2 2 -9 -8 -6 -18 -7 -22 -5 -9
6 -2 -61 8 -78 15 -24 34 55 25 104 0 4 -10 6 -20 5 -11 0 -17 -5 -15 -9z"/>
<path d="M2674 1442 c-7 -4 -14 -18 -15 -32 -4 -22 0 -25 29 -28 18 -2 32 1
32 7 0 6 -4 11 -8 11 -5 0 -8 10 -8 21 1 24 -12 33 -30 21z"/>
<path d="M983 1418 c-30 -15 -29 -26 2 -21 28 6 57 33 34 32 -8 0 -24 -5 -36
-11z"/>
<path d="M2004 1393 c2 -11 12 -18 26 -18 13 0 25 -7 28 -15 4 -13 3 -13 -10
-2 -11 9 -18 10 -23 2 -3 -5 -19 -10 -35 -10 -16 0 -32 -4 -35 -10 -3 -6 -48
-10 -101 -10 -87 0 -94 1 -94 20 0 18 7 20 71 20 48 0 68 3 63 11 -3 6 -14 9
-23 6 -9 -2 -40 -1 -69 3 l-53 7 3 -69 c2 -66 3 -68 28 -67 22 1 22 2 5 7 -11
4 -21 15 -21 25 -2 15 9 17 95 17 77 0 106 4 139 20 44 21 56 24 49 13 -3 -5
15 -6 40 -4 24 2 43 4 41 6 -7 6 -117 65 -122 65 -2 0 -3 -8 -2 -17z"/>
<path d="M755 1373 c6 -25 30 -52 48 -53 10 0 9 7 -8 39 -8 16 -22 31 -31 35
-13 5 -15 2 -9 -21z"/>
<path d="M2274 1365 c-34 -45 -27 -62 11 -26 17 15 36 30 43 32 8 3 5 8 -8 16
-17 11 -22 9 -46 -22z"/>
<path d="M916 1373 c-14 -13 -17 -14 -12 -3 4 8 -4 2 -18 -15 -14 -16 -26 -34
-26 -38 0 -10 30 6 57 32 12 12 27 21 33 21 6 0 8 5 5 10 -9 14 -18 12 -39 -7z"/>
<path d="M1395 1319 c-82 -58 -91 -66 -82 -75 10 -10 108 57 100 69 -4 6 0 8
9 4 19 -7 51 14 54 37 3 23 -2 20 -81 -35z"/>
<path d="M2146 1362 c-5 -8 45 -52 59 -52 11 0 4 17 -15 38 -22 23 -35 27 -44
14z"/>
<path d="M1530 1285 c0 -43 2 -76 4 -74 7 7 10 139 3 146 -4 3 -7 -29 -7 -72z"/>
<path d="M892 1304 c-16 -12 -15 -14 8 -15 39 -3 44 -4 56 -11 6 -4 10 1 9 15
-1 17 -8 22 -28 23 -15 1 -35 -5 -45 -12z"/>
<path d="M717 1290 c-5 -20 3 -26 17 -12 8 8 14 9 52 11 40 2 17 21 -25 21
-30 0 -40 -4 -44 -20z"/>
<path d="M1387 1260 c-43 -28 -75 -54 -72 -60 6 -10 165 87 165 101 0 16 -13
10 -93 -41z"/>
<path d="M2076 1300 c-35 -7 -55 -22 -56 -44 0 -5 9 -1 20 9 14 13 20 14 20 5
0 -9 6 -8 20 5 12 11 20 13 20 6 0 -8 5 -9 18 -2 19 10 23 11 53 11 11 0 17 5
14 10 -7 11 -51 11 -109 0z"/>
<path d="M2266 1301 c-3 -5 10 -12 30 -15 19 -4 43 -10 51 -13 12 -5 14 -3 8
8 -8 12 -6 12 8 0 23 -18 32 -8 12 13 -18 17 -100 23 -109 7z"/>
<path d="M657 1286 c-3 -8 -15 -12 -29 -9 -15 3 -29 -2 -37 -11 -12 -14 -11
-16 6 -16 10 0 24 5 31 12 9 9 12 9 12 -2 0 -9 9 -5 26 11 22 21 24 21 18 4
-7 -18 -6 -18 9 -6 9 7 17 17 17 22 0 15 -47 10 -53 -5z"/>
<path d="M1010 1292 c0 -5 9 -17 20 -27 14 -13 20 -14 20 -5 0 10 5 9 18 -3
19 -18 42 -23 42 -9 0 4 -13 16 -30 25 -22 14 -30 15 -30 5 -1 -9 -5 -7 -14 5
-14 18 -26 22 -26 9z"/>
<path d="M2400 1292 c0 -4 7 -17 16 -28 13 -16 15 -16 10 -1 -6 20 9 23 21 3
10 -16 53 -31 53 -18 0 6 -6 12 -12 15 -7 3 -30 12 -50 21 -21 9 -38 13 -38 8z"/>
<path d="M1989 1271 c-13 -11 -21 -22 -18 -25 3 -4 17 2 30 13 13 11 21 22 18
25 -3 4 -17 -2 -30 -13z"/>
<path d="M1908 1250 c-41 -42 -33 -54 40 -58 34 -2 62 -7 62 -12 0 -6 -1 -10
-2 -10 -63 -6 -114 -13 -117 -16 -2 -2 22 -4 53 -4 l58 0 -6 -36 c-5 -22 -3
-41 4 -49 7 -8 9 -18 6 -24 -3 -5 0 -12 6 -14 7 -3 -18 -6 -57 -6 -49 0 -65 2
-55 9 10 7 -8 10 -61 10 -57 0 -78 -4 -82 -14 -8 -21 -2 -49 13 -54 7 -3 10 0
6 7 -4 6 -1 11 9 11 9 0 29 7 45 15 18 9 31 11 35 5 3 -5 15 -15 27 -21 15 -8
19 -8 14 0 -5 8 15 11 63 11 55 0 71 -3 71 -14 0 -20 32 -28 61 -17 17 7 19
10 7 10 -27 1 -21 18 7 23 14 3 30 -1 36 -8 6 -8 8 -14 3 -14 -5 0 2 -7 14
-16 12 -8 22 -19 22 -25 0 -13 -153 -11 -187 2 l-28 12 25 7 25 8 -27 1 c-42
2 -34 -24 12 -43 24 -9 69 -16 110 -16 70 0 70 0 70 -27 0 -27 -1 -28 -50 -25
-41 3 -50 1 -50 -12 0 -12 11 -16 48 -16 l48 0 3 -47 c5 -98 11 -51 11 83 -1
112 -4 143 -17 159 -15 19 -15 19 -9 -7 9 -37 -9 -36 -29 2 -16 30 -29 42 -19
16 3 -8 -3 -16 -15 -19 -12 -3 -21 -1 -21 4 0 5 4 9 9 9 9 0 25 80 16 88 -10
10 -35 -68 -35 -109 0 -36 -2 -40 -16 -28 -27 22 -45 69 -47 120 -1 27 1 49 6
49 4 0 7 6 7 14 0 8 11 28 25 44 29 35 32 46 8 34 -10 -5 -41 -14 -68 -20 -28
-6 -58 -14 -68 -17 -20 -8 -24 19 -4 32 6 4 18 16 26 26 23 30 -7 20 -41 -13z"/>
<path d="M800 1261 c0 -5 -9 -13 -20 -16 -48 -15 -120 -106 -120 -150 0 -30
19 -14 26 22 6 32 8 35 16 18 6 -16 7 -13 4 10 -4 28 -3 28 10 10 13 -18 14
-17 14 11 0 16 4 35 9 43 7 11 11 10 20 -5 9 -17 10 -17 11 -1 0 10 8 17 19
17 22 0 45 25 36 40 -8 13 -25 13 -25 1z"/>
<path d="M856 1261 c-7 -11 28 -43 37 -34 4 3 7 0 7 -8 0 -8 9 -22 20 -32 19
-16 20 -16 21 6 1 24 4 18 14 -26 4 -19 11 -27 19 -24 10 4 12 -1 9 -16 -4
-16 -2 -18 5 -8 7 10 12 -1 17 -40 12 -82 25 -32 16 59 -1 13 -81 92 -93 92
-3 0 -8 -6 -11 -12 -2 -7 -3 -5 -1 5 1 10 -4 21 -12 24 -8 3 -11 9 -8 14 3 5
-4 9 -15 9 -11 0 -22 -4 -25 -9z"/>
<path d="M1137 1263 c-4 -3 0 -14 9 -24 10 -12 14 -25 9 -36 -5 -12 -9 -14
-12 -5 -3 6 -14 12 -26 12 -12 1 -47 9 -77 20 -30 10 -57 17 -59 14 -2 -2 7
-14 21 -27 38 -35 48 -60 48 -119 0 -35 -7 -64 -20 -85 -24 -40 -41 -42 -39
-5 1 22 -25 102 -34 102 -1 0 -3 -19 -4 -41 -1 -23 -7 -47 -12 -52 -6 -6 -11
-18 -10 -27 0 -10 2 -11 6 -2 6 14 43 16 43 2 0 -5 -6 -10 -12 -10 -8 0 -7 -4
3 -10 19 -11 76 2 69 16 -3 5 5 10 18 12 23 4 30 18 11 24 -7 2 -7 12 1 32 15
40 10 105 -9 116 -14 9 -14 11 -1 20 19 13 37 13 45 0 15 -24 87 -7 78 18 -16
52 -32 70 -46 55z"/>
<path d="M2169 1252 c-28 -29 -11 -44 21 -20 16 12 27 25 24 30 -8 13 -27 8
-45 -10z"/>
<path d="M2240 1261 c0 -13 26 -32 33 -24 4 3 7 -1 7 -11 0 -9 5 -14 10 -11 6
3 10 -1 10 -11 0 -13 3 -14 14 -5 12 10 13 9 9 -7 -2 -11 0 -22 5 -26 5 -3 12
3 15 14 3 13 -7 30 -34 54 -36 34 -69 47 -69 27z"/>
<path d="M1397 1219 c-40 -24 -65 -45 -61 -51 5 -7 1 -9 -9 -5 -10 3 -17 2
-17 -3 0 -6 4 -10 9 -10 14 0 161 92 161 102 0 14 -13 9 -83 -33z"/>
<path d="M1750 1241 c0 -21 13 -41 26 -41 17 0 17 10 0 33 -14 19 -26 22 -26
8z"/>
<path d="M2114 1207 c-16 -16 -20 -27 -14 -42 7 -17 9 -16 10 10 1 26 3 27 10
10 9 -20 9 -20 9 0 1 17 3 17 11 5 8 -12 10 -9 10 13 0 32 -8 33 -36 4z"/>
<path d="M819 1196 c-19 -41 -3 -92 33 -110 17 -9 37 -16 45 -16 19 0 16 -15
-11 -47 -24 -29 -24 -32 -24 -218 0 -135 3 -173 8 -130 4 33 8 83 9 110 l1 50
72 3 c104 4 112 22 10 22 -74 0 -82 2 -82 19 0 27 18 31 148 31 122 0 140 5
188 54 18 18 17 18 -6 11 -14 -4 -33 -16 -43 -26 -16 -17 -34 -19 -152 -19
-74 0 -135 3 -135 6 0 4 8 13 18 20 15 12 15 15 2 24 -11 7 -12 12 -3 18 15 9
35 61 28 72 -3 5 -19 11 -35 15 -17 4 -30 13 -30 21 0 8 -7 17 -15 20 -8 4
-15 10 -15 15 0 14 28 11 33 -3 3 -7 6 1 6 17 0 28 -18 65 -33 65 -3 0 -11
-11 -17 -24z"/>
<path d="M2204 1185 c-7 -41 11 -89 42 -105 32 -18 64 6 64 47 0 18 -4 33 -10
33 -5 0 -10 -16 -10 -36 0 -28 -3 -35 -17 -32 -10 2 -22 13 -28 26 -5 12 -16
20 -22 17 -7 -2 -13 2 -13 9 0 9 7 12 20 9 15 -4 20 0 20 15 0 58 -35 71 -46
17z"/>
<path d="M1420 1187 c-94 -57 -110 -68 -105 -77 4 -7 13 -6 26 0 11 6 17 15
14 19 -2 5 1 8 8 7 15 -1 117 56 117 67 0 12 -23 6 -60 -16z"/>
<path d="M1750 1168 c0 -10 7 -18 16 -18 8 0 13 4 9 9 -3 5 9 11 27 13 31 3
30 4 -9 9 -36 4 -43 2 -43 -13z"/>
<path d="M2350 1163 c0 -19 3 -24 9 -15 14 23 31 -11 32 -66 1 -29 6 -49 10
-46 14 8 10 81 -5 119 -18 43 -46 47 -46 8z"/>
<path d="M2070 1161 c12 -23 13 -34 3 -28 -23 14 -42 -61 -23 -91 9 -14 11
-13 7 11 -2 15 0 27 4 27 5 0 5 7 2 17 -4 10 -2 14 4 10 6 -4 13 3 17 16 10
37 7 57 -9 57 -12 0 -13 -4 -5 -19z"/>
<path d="M1384 1118 c-44 -28 -74 -53 -68 -55 14 -5 164 86 164 98 0 17 -18 9
-96 -43z"/>
<path d="M2153 1159 c-14 -14 -18 -73 -4 -65 4 3 17 -1 27 -9 25 -19 34 -19
34 1 0 10 -6 14 -15 10 -14 -5 -19 4 -27 57 -2 15 -5 16 -15 6z"/>
<path d="M760 1141 c0 -11 -3 -26 -6 -35 -4 -11 0 -16 13 -16 16 0 18 6 15 35
-4 37 -22 49 -22 16z"/>
<path d="M909 1143 c-1 -13 -2 -28 -3 -35 -1 -6 5 -13 12 -15 14 -5 16 35 2
57 -8 12 -10 11 -11 -7z"/>
<path d="M1387 1075 c-42 -25 -77 -50 -77 -55 0 -6 2 -10 5 -10 13 0 165 94
165 101 0 15 -14 10 -93 -36z"/>
<path d="M1751 1093 c1 -17 3 -21 6 -10 2 9 11 17 19 17 8 0 14 5 14 10 0 6
-9 10 -20 10 -15 0 -20 -6 -19 -27z"/>
<path d="M706 1076 c-21 -50 -20 -59 3 -44 23 14 30 36 21 63 -6 17 -10 15
-24 -19z"/>
<path d="M1613 1055 c0 -33 2 -45 4 -27 2 18 2 45 0 60 -2 15 -4 0 -4 -33z"/>
<path d="M631 1046 c-1 -26 -4 -28 -31 -24 -39 6 -40 -15 -4 -74 l26 -43 87 0
c82 0 86 -1 89 -22 3 -22 0 -23 -72 -23 -61 0 -77 3 -85 18 -25 42 -7 -13 29
-92 42 -90 48 -116 28 -116 -7 0 -6 -6 3 -17 8 -10 23 -33 33 -52 15 -28 16
-35 5 -42 -11 -7 -10 -16 9 -50 13 -22 22 -42 20 -43 -2 -1 -11 -8 -20 -15
-15 -11 -21 -8 -49 24 -17 19 -40 40 -50 46 -17 9 -19 6 -19 -31 0 -33 3 -41
18 -39 50 5 55 -10 16 -46 -37 -34 -44 -32 -44 18 0 24 -3 47 -7 50 -3 4 -8
21 -10 37 -2 24 -44 80 -59 80 -3 0 39 -83 46 -90 9 -9 12 -33 13 -92 0 -32 4
-58 9 -58 5 0 35 18 67 40 32 22 73 43 90 46 l32 7 -21 -54 c-12 -30 -37 -73
-57 -96 -30 -37 -32 -43 -15 -43 11 0 36 -7 55 -15 20 -8 39 -15 42 -15 3 0 5
99 5 220 0 121 -4 220 -8 220 -11 0 -12 39 -1 45 5 4 9 73 9 154 0 120 -3 151
-15 161 -17 15 -19 7 -5 -21 16 -29 -5 -24 -29 7 -12 15 -21 21 -21 15 0 -7
-4 -10 -10 -6 -5 3 -18 -3 -29 -14 -19 -19 -20 -19 -36 -1 -9 10 -20 31 -25
46 l-8 29 -1 -29z m24 -56 c4 -6 -8 -10 -29 -10 -19 0 -38 5 -41 10 -4 6 8 10
29 10 19 0 38 -4 41 -10z m111 -17 c18 -16 34 -31 34 -35 0 -12 -178 -9 -185
3 -11 17 3 23 50 24 24 0 47 3 51 8 4 4 2 7 -5 7 -7 0 -9 5 -6 10 10 16 24 12
61 -17z m26 -183 c5 -38 3 -48 -15 -63 -29 -25 -59 -18 -70 18 -6 17 -19 41
-29 55 l-20 25 34 6 c18 4 47 6 63 5 28 -1 31 -5 37 -46z m-2 -222 c0 -70 0
-71 -19 -52 -16 16 -17 21 -5 35 12 14 12 19 -5 41 -15 19 -17 28 -9 36 28 28
38 13 38 -60z m0 -274 c0 -42 -1 -45 -22 -38 -13 3 -24 8 -26 9 -4 3 39 75 44
75 2 0 4 -21 4 -46z"/>
<path d="M828 1045 c5 -26 16 -32 27 -15 7 11 -11 40 -25 40 -4 0 -5 -11 -2
-25z"/>
<path d="M1391 1030 c-36 -21 -68 -46 -73 -54 -10 -18 8 -31 19 -13 4 7 28 25
53 39 25 15 57 36 70 47 42 35 0 24 -69 -19z"/>
<path d="M2218 1046 c-4 -17 -1 -26 8 -26 21 0 28 21 12 37 -14 13 -16 12 -20
-11z"/>
<path d="M1390 979 c-69 -46 -94 -69 -74 -69 13 0 164 103 164 112 0 14 -14 8
-90 -43z"/>
<path d="M1100 1010 c20 -13 180 -13 180 0 0 6 -39 10 -97 10 -67 0 -93 -3
-83 -10z"/>
<path d="M1438 962 c-16 -23 -80 -62 -101 -62 -8 0 -17 -11 -19 -25 -5 -24 5
-34 16 -16 4 5 36 26 73 47 37 21 62 39 55 42 -9 3 -8 8 5 18 16 12 16 13 1
14 -9 0 -23 -8 -30 -18z"/>
<path d="M1388 867 c-38 -22 -68 -47 -68 -54 0 -7 25 4 61 27 34 22 70 42 80
45 21 7 26 25 7 24 -7 0 -43 -19 -80 -42z"/>
<path d="M577 859 c-4 -24 -9 -55 -13 -69 l-6 -25 20 24 19 24 6 -39 c4 -22 9
-77 13 -123 l7 -83 46 -34 c25 -18 50 -34 55 -34 12 0 -23 50 -58 83 -24 23
-27 30 -15 37 10 7 19 3 31 -13 25 -33 30 -16 6 22 -13 21 -23 28 -28 21 -5
-8 -9 -7 -14 5 -8 23 -8 27 4 20 5 -3 7 0 4 9 -3 8 -12 17 -20 20 -8 3 -14 13
-14 22 0 15 4 14 25 -6 33 -31 31 -18 -5 54 -17 32 -30 66 -30 75 0 10 -6 25
-13 36 -13 16 -14 14 -20 -26z"/>
<path d="M2234 815 c0 -49 1 -71 3 -48 2 23 2 64 0 90 -2 26 -3 8 -3 -42z"/>
<path d="M2459 883 c-1 -10 -1 -27 0 -38 1 -11 -5 -37 -14 -57 -8 -21 -15 -52
-15 -71 0 -18 -7 -42 -15 -53 -8 -10 -15 -32 -15 -49 0 -16 -7 -38 -14 -47
-14 -19 -32 -25 -21 -8 3 6 4 10 1 10 -7 0 -49 -71 -44 -76 3 -2 21 8 40 23
20 16 43 33 52 38 12 7 18 30 22 80 8 99 11 106 36 67 11 -18 23 -31 25 -28 7
6 -25 64 -38 68 -6 2 -8 14 -3 32 6 26 8 27 19 13 18 -25 26 -20 15 9 -6 14
-10 40 -10 59 0 35 -19 60 -21 28z"/>
<path d="M1387 818 c-59 -35 -68 -45 -64 -65 2 -13 0 -26 -5 -29 -4 -3 -6 -10
-2 -15 4 -6 11 -6 20 2 10 8 14 8 14 1 0 -6 -9 -16 -20 -22 -27 -14 -17 -29
15 -22 32 6 32 -6 0 -18 -14 -5 -25 -14 -25 -19 0 -5 26 0 58 11 85 30 105 38
100 44 -3 2 -21 -3 -41 -11 -41 -17 -47 -18 -47 -7 0 4 20 15 45 25 25 11 45
23 45 28 0 14 -17 11 -52 -11 -33 -20 -68 -26 -68 -12 0 4 27 19 60 34 33 14
60 31 60 37 0 6 -27 -2 -60 -19 -75 -38 -79 -23 -6 19 50 28 77 51 60 51 -4 0
-35 -16 -70 -35 -34 -19 -65 -35 -69 -35 -16 0 10 21 75 59 38 23 70 44 70 46
0 13 -32 1 -93 -37z"/>
<path d="M566 722 c-9 -18 -15 -39 -13 -45 6 -18 39 40 35 60 -3 14 -8 11 -22
-15z"/>
<path d="M1125 716 c-10 -14 -21 -24 -25 -21 -10 6 -46 -22 -38 -31 4 -3 19 1
32 10 14 9 32 16 41 16 8 0 15 5 15 11 0 5 -4 7 -10 4 -5 -3 -10 -2 -10 4 0 5
6 11 13 14 6 2 9 8 5 11 -3 4 -14 -4 -23 -18z"/>
<path d="M2233 655 c0 -33 2 -45 4 -27 2 18 2 45 0 60 -2 15 -4 0 -4 -33z"/>
<path d="M1129 678 c-1 -2 -3 -25 -4 -51 -2 -32 1 -47 9 -44 16 5 20 48 4 58
-10 7 -10 9 0 9 6 0 12 7 12 15 0 12 -17 22 -21 13z"/>
<path d="M562 640 c-18 -30 -15 -42 8 -28 11 7 20 21 20 30 0 24 -12 23 -28
-2z"/>
<path d="M1457 653 c-4 -5 -34 -18 -69 -28 -74 -21 -102 -41 -45 -31 44 8 49
-1 7 -15 -16 -6 -30 -15 -30 -20 0 -13 5 -12 80 26 73 37 88 51 72 67 -6 6
-12 6 -15 1z"/>
<path d="M1074 636 c-22 -17 -11 -35 13 -20 19 12 29 34 16 34 -5 0 -18 -6
-29 -14z"/>
<path d="M2483 604 c3 -3 -3 -15 -13 -26 -10 -12 -22 -35 -25 -52 -4 -17 -13
-55 -22 -83 -13 -48 -16 -52 -35 -42 -35 19 -34 -2 2 -32 42 -35 54 -36 47 -6
-11 45 24 167 60 209 15 17 10 38 -9 38 -6 0 -9 -3 -5 -6z"/>
<path d="M1056 576 c-42 -24 -58 -46 -32 -46 9 0 16 5 16 10 0 6 6 10 14 10
19 0 61 36 50 42 -5 4 -27 -4 -48 -16z"/>
<path d="M1395 560 c-38 -15 -71 -33 -73 -40 -3 -8 3 -10 19 -5 32 10 139 64
139 70 0 8 -11 5 -85 -25z"/>
<path d="M1446 531 c-3 -5 -25 -13 -48 -19 -47 -12 -87 -37 -76 -47 3 -4 17 0
30 8 12 9 42 20 64 26 44 12 80 41 51 41 -9 0 -18 -4 -21 -9z"/>
<path d="M550 500 c-5 -45 -5 -272 1 -275 9 -6 29 90 29 138 -1 43 -27 164
-30 137z"/>
<path d="M1415 482 c-65 -28 -111 -55 -99 -59 6 -2 37 10 68 27 32 16 64 30
71 30 8 0 17 5 20 10 9 15 -14 11 -60 -8z"/>
<path d="M2499 415 c0 -50 -4 -111 -8 -138 -11 -65 5 -59 25 10 18 62 15 186
-5 206 -8 8 -11 -12 -12 -78z"/>
<path d="M863 425 c0 -33 2 -45 4 -27 2 18 2 45 0 60 -2 15 -4 0 -4 -33z"/>
<path d="M1382 425 c-40 -20 -70 -40 -67 -45 6 -9 165 64 165 75 0 12 -30 3
-98 -30z"/>
<path d="M2231 435 c-1 -17 4 -36 10 -42 6 -6 11 -45 11 -88 -1 -68 1 -76 16
-70 9 4 24 7 32 8 39 0 40 19 5 58 -19 22 -35 46 -35 55 0 9 -6 30 -14 47 -8
18 -17 39 -19 47 -3 8 -6 1 -6 -15z"/>
<path d="M336 383 c10 -52 76 -118 162 -162 24 -12 42 -27 39 -34 -2 -7 -22
-22 -45 -35 -46 -26 -54 -42 -21 -42 12 0 34 14 49 30 15 17 31 30 34 30 4 0
17 -11 29 -25 22 -24 77 -45 77 -29 0 5 -23 22 -50 37 -28 16 -50 32 -50 37 0
4 21 22 48 38 57 37 103 84 130 133 15 27 16 36 6 36 -7 0 -11 -3 -9 -7 2 -4
-39 -49 -91 -100 -94 -91 -97 -93 -113 -74 -9 11 -32 32 -51 46 -72 53 -141
121 -130 128 8 5 7 9 -3 13 -12 4 -14 0 -11 -20z"/>
<path d="M1382 377 c-40 -17 -68 -35 -64 -39 8 -8 162 56 162 67 0 10 -26 3
-98 -28z"/>
<path d="M2693 403 c3 -5 -36 -49 -88 -97 -52 -48 -95 -92 -95 -97 0 -13 77
37 123 80 47 44 82 107 65 117 -6 4 -8 3 -5 -3z"/>
<path d="M1071 356 c-1 -28 -5 -37 -15 -33 -11 4 -12 -1 -7 -21 4 -15 11 -27
16 -27 15 0 25 59 16 90 -9 30 -9 30 -10 -9z"/>
<path d="M2300 360 c0 -18 96 -113 140 -138 57 -32 50 -14 -17 44 -32 27 -72
62 -90 78 -18 15 -33 23 -33 16z"/>
<path d="M960 344 c0 -9 19 -34 42 -56 l41 -38 -29 -1 c-16 0 -38 -4 -49 -9
-18 -7 -19 -8 -2 -15 9 -4 33 -4 52 -1 47 9 46 36 -2 83 -21 20 -27 28 -13 17
22 -17 23 -17 11 -1 -8 10 -23 23 -33 28 -14 8 -18 6 -18 -7z"/>
<path d="M1388 332 c-37 -15 -68 -32 -68 -38 0 -12 136 38 155 57 16 16 -17 9
-87 -19z"/>
<path d="M1124 328 c-12 -14 -14 -18 -4 -13 8 4 2 -6 -14 -23 -32 -34 -25 -42
12 -16 30 21 58 74 39 74 -8 0 -22 -10 -33 -22z"/>
<path d="M1450 309 c-8 -5 -41 -16 -72 -25 -46 -13 -58 -21 -58 -36 0 -15 4
-18 18 -13 9 5 33 10 52 12 68 8 78 12 82 38 6 29 -2 38 -22 24z"/>
<path d="M1075 240 c8 -13 71 -24 92 -15 17 7 16 8 -2 15 -28 12 -97 12 -90 0z"/>
<path d="M720 209 c0 -5 -24 -9 -52 -9 -61 0 -93 -14 -56 -23 39 -11 87 -8
123 7 42 18 43 22 10 28 -14 3 -25 1 -25 -3z"/>
<path d="M328 202 c-33 -7 -18 -19 38 -31 43 -10 66 -10 105 -1 28 7 47 15 44
18 -3 3 -40 5 -82 3 -42 -1 -79 2 -82 6 -3 5 -14 7 -23 5z"/>
<path d="M2278 198 c16 -15 87 -26 133 -21 79 9 57 21 -46 25 -52 2 -91 0 -87
-4z"/>
<path d="M2610 191 l-95 -6 49 -13 c61 -16 174 -3 161 19 -4 5 -9 8 -13 7 -4
-1 -50 -4 -102 -7z"/>
<path d="M2447 166 c-45 -27 -63 -44 -55 -51 8 -9 51 11 76 35 l24 22 30 -31
c25 -26 68 -43 68 -27 0 5 -99 77 -103 75 -1 0 -19 -11 -40 -23z"/>
<path d="M546 144 c-9 -25 -7 -64 4 -64 6 0 10 18 10 40 0 43 -4 50 -14 24z"/>
<path d="M2480 116 c0 -14 5 -28 10 -31 6 -4 10 7 10 24 0 17 -4 31 -10 31 -5
0 -10 -11 -10 -24z"/>
<path d="M380 90 c0 -6 7 -13 15 -16 21 -8 19 -24 -2 -24 -21 0 -88 -39 -80
-46 10 -10 196 59 202 74 8 21 0 25 -23 13 -26 -14 -68 -14 -93 -1 -13 8 -19
7 -19 0z"/>
<path d="M2526 76 c3 -6 38 -22 80 -35 41 -14 77 -29 80 -33 8 -13 24 -9 24 5
0 16 -41 37 -73 37 -20 1 -20 2 -4 11 30 18 19 24 -47 25 -44 1 -63 -2 -60
-10z"/>
</g>
</svg>
